<?xml version="1.0" encoding="UTF-8" standalone="no"?>
<!DOCTYPE svg PUBLIC "-//W3C//DTD SVG 1.1//EN"
 "http://www.w3.org/Graphics/SVG/1.1/DTD/svg11.dtd">
<!-- Generated by graphviz version 2.43.0 (0)
 -->
<!-- Title: sourcetree Pages: 1 -->
<svg width="2674pt" height="260pt"
 viewBox="0.00 0.00 2674.00 260.00" xmlns="http://www.w3.org/2000/svg" xmlns:xlink="http://www.w3.org/1999/xlink">
<g id="graph0" class="graph" transform="scale(1 1) rotate(0) translate(4 256)">
<title>sourcetree</title>
<polygon fill="white" stroke="transparent" points="-4,4 -4,-256 2670,-256 2670,4 -4,4"/>
<!-- MulleObjC -->
<g id="node1" class="node">
<title>MulleObjC</title>
<polygon fill="yellow" stroke="black" points="1212,-252 1120,-252 1120,-216 1212,-216 1212,-252"/>
<text text-anchor="middle" x="1166" y="-230.3" font-family="Times,serif" font-size="14.00">MulleObjC</text>
</g>
<!-- mulle&#45;objc&#45;cc -->
<g id="node25" class="node">
<title>mulle&#45;objc&#45;cc</title>
<g id="a_node25"><a xlink:href="https://github.com/mulle-cc/mulle-objc-cc" xlink:title="mulle&#45;objc&#45;cc">
<polygon fill="lightgrey" stroke="black" points="1078,-180 968,-180 968,-144 1078,-144 1078,-180"/>
<text text-anchor="middle" x="1023" y="-158.3" font-family="Times,serif" font-size="14.00">mulle&#45;objc&#45;cc</text>
</a>
</g>
</g>
<!-- MulleObjC&#45;&gt;mulle&#45;objc&#45;cc -->
<g id="edge23" class="edge">
<title>MulleObjC&#45;&gt;mulle&#45;objc&#45;cc</title>
<path fill="none" stroke="black" d="M1131.02,-215.88C1111.8,-206.47 1087.77,-194.71 1067.26,-184.67"/>
<polygon fill="black" stroke="black" points="1068.64,-181.44 1058.12,-180.19 1065.56,-187.73 1068.64,-181.44"/>
</g>
<!-- mulle&#45;objc&#45;debug -->
<g id="node26" class="node">
<title>mulle&#45;objc&#45;debug</title>
<g id="a_node26"><a xlink:href="https://github.com/mulle-objc/mulle-objc-debug" xlink:title="mulle&#45;objc&#45;debug">
<polygon fill="lightgrey" stroke="black" points="1235.5,-180 1096.5,-180 1096.5,-144 1235.5,-144 1235.5,-180"/>
<text text-anchor="middle" x="1166" y="-158.3" font-family="Times,serif" font-size="14.00">mulle&#45;objc&#45;debug</text>
</a>
</g>
</g>
<!-- MulleObjC&#45;&gt;mulle&#45;objc&#45;debug -->
<g id="edge24" class="edge">
<title>MulleObjC&#45;&gt;mulle&#45;objc&#45;debug</title>
<path fill="none" stroke="black" d="M1166,-215.7C1166,-207.98 1166,-198.71 1166,-190.11"/>
<polygon fill="black" stroke="black" points="1169.5,-190.1 1166,-180.1 1162.5,-190.1 1169.5,-190.1"/>
</g>
<!-- mulle&#45;objc&#45;runtime -->
<g id="node27" class="node">
<title>mulle&#45;objc&#45;runtime</title>
<g id="a_node27"><a xlink:href="https://github.com/mulle-objc/mulle-objc-runtime" xlink:title="mulle&#45;objc&#45;runtime">
<polygon fill="lightgrey" stroke="black" points="1406,-180 1254,-180 1254,-144 1406,-144 1406,-180"/>
<text text-anchor="middle" x="1330" y="-158.3" font-family="Times,serif" font-size="14.00">mulle&#45;objc&#45;runtime</text>
</a>
</g>
</g>
<!-- MulleObjC&#45;&gt;mulle&#45;objc&#45;runtime -->
<g id="edge25" class="edge">
<title>MulleObjC&#45;&gt;mulle&#45;objc&#45;runtime</title>
<path fill="none" stroke="black" d="M1206.12,-215.88C1228.64,-206.26 1256.92,-194.19 1280.77,-184.01"/>
<polygon fill="black" stroke="black" points="1282.19,-187.21 1290.01,-180.07 1279.44,-180.77 1282.19,-187.21"/>
</g>
<!-- mulle&#45;aba -->
<g id="node2" class="node">
<title>mulle&#45;aba</title>
<g id="a_node2"><a xlink:href="https://github.com/mulle-concurrent/mulle-aba@*" xlink:title="mulle&#45;aba">
<polygon fill="lightgrey" stroke="black" points="86,-36 0,-36 0,0 86,0 86,-36"/>
<text text-anchor="middle" x="43" y="-14.3" font-family="Times,serif" font-size="14.00">mulle&#45;aba</text>
</a>
</g>
</g>
<!-- mulle&#45;allocator -->
<g id="node3" class="node">
<title>mulle&#45;allocator</title>
<g id="a_node3"><a xlink:href="https://github.com/mulle-c/mulle-allocator@*" xlink:title="mulle&#45;allocator">
<polygon fill="lightgrey" stroke="black" points="227.5,-36 104.5,-36 104.5,0 227.5,0 227.5,-36"/>
<text text-anchor="middle" x="166" y="-14.3" font-family="Times,serif" font-size="14.00">mulle&#45;allocator</text>
</a>
</g>
</g>
<!-- mulle&#45;buffer -->
<g id="node4" class="node">
<title>mulle&#45;buffer</title>
<g id="a_node4"><a xlink:href="https://github.com/mulle-c/mulle-buffer@*" xlink:title="mulle&#45;buffer">
<polygon fill="lightgrey" stroke="black" points="350,-36 246,-36 246,0 350,0 350,-36"/>
<text text-anchor="middle" x="298" y="-14.3" font-family="Times,serif" font-size="14.00">mulle&#45;buffer</text>
</a>
</g>
</g>
<!-- mulle&#45;c11 -->
<g id="node5" class="node">
<title>mulle&#45;c11</title>
<g id="a_node5"><a xlink:href="https://github.com/mulle-c/mulle-c11@*" xlink:title="mulle&#45;c11">
<polygon fill="lightgrey" stroke="black" points="454,-36 368,-36 368,0 454,0 454,-36"/>
<text text-anchor="middle" x="411" y="-14.3" font-family="Times,serif" font-size="14.00">mulle&#45;c11</text>
</a>
</g>
</g>
<!-- mulle&#45;concurrent -->
<g id="node6" class="node">
<title>mulle&#45;concurrent</title>
<g id="a_node6"><a xlink:href="https://github.com/mulle-concurrent/mulle-concurrent@*" xlink:title="mulle&#45;concurrent">
<polygon fill="lightgrey" stroke="black" points="611.5,-36 472.5,-36 472.5,0 611.5,0 611.5,-36"/>
<text text-anchor="middle" x="542" y="-14.3" font-family="Times,serif" font-size="14.00">mulle&#45;concurrent</text>
</a>
</g>
</g>
<!-- mulle&#45;container -->
<g id="node7" class="node">
<title>mulle&#45;container</title>
<g id="a_node7"><a xlink:href="https://github.com/mulle-c/mulle-container@*" xlink:title="mulle&#45;container">
<polygon fill="lightgrey" stroke="black" points="758,-36 630,-36 630,0 758,0 758,-36"/>
<text text-anchor="middle" x="694" y="-14.3" font-family="Times,serif" font-size="14.00">mulle&#45;container</text>
</a>
</g>
</g>
<!-- mulle&#45;core -->
<g id="node8" class="node">
<title>mulle&#45;core</title>
<g id="a_node8"><a xlink:href="https://github.com/mulle-core/mulle-core" xlink:title="mulle&#45;core">
<polygon fill="lightgrey" stroke="black" points="1376,-108 1284,-108 1284,-72 1376,-72 1376,-108"/>
<text text-anchor="middle" x="1330" y="-86.3" font-family="Times,serif" font-size="14.00">mulle&#45;core</text>
</a>
</g>
</g>
<!-- mulle&#45;core&#45;&gt;mulle&#45;aba -->
<g id="edge1" class="edge">
<title>mulle&#45;core&#45;&gt;mulle&#45;aba</title>
<path fill="none" stroke="black" d="M1283.83,-88.7C1091.13,-87.2 349.69,-78.81 96.08,-35.84"/>
<polygon fill="black" stroke="black" points="96.64,-32.38 86.18,-34.09 95.43,-39.27 96.64,-32.38"/>
</g>
<!-- mulle&#45;core&#45;&gt;mulle&#45;allocator -->
<g id="edge2" class="edge">
<title>mulle&#45;core&#45;&gt;mulle&#45;allocator</title>
<path fill="none" stroke="black" d="M1283.82,-87.91C1105.88,-83.53 463.84,-66.08 237.94,-35.92"/>
<polygon fill="black" stroke="black" points="238.21,-32.42 227.83,-34.52 237.25,-39.36 238.21,-32.42"/>
</g>
<!-- mulle&#45;core&#45;&gt;mulle&#45;buffer -->
<g id="edge3" class="edge">
<title>mulle&#45;core&#45;&gt;mulle&#45;buffer</title>
<path fill="none" stroke="black" d="M1283.88,-87.81C1119.24,-83.36 560.04,-66.47 360.17,-35.92"/>
<polygon fill="black" stroke="black" points="360.5,-32.43 350.08,-34.32 359.4,-39.34 360.5,-32.43"/>
</g>
<!-- mulle&#45;core&#45;&gt;mulle&#45;c11 -->
<g id="edge4" class="edge">
<title>mulle&#45;core&#45;&gt;mulle&#45;c11</title>
<path fill="none" stroke="black" d="M1283.75,-87.73C1130.85,-83.28 641.73,-67.08 464.18,-35.87"/>
<polygon fill="black" stroke="black" points="464.66,-32.4 454.19,-34.03 463.4,-39.28 464.66,-32.4"/>
</g>
<!-- mulle&#45;core&#45;&gt;mulle&#45;concurrent -->
<g id="edge5" class="edge">
<title>mulle&#45;core&#45;&gt;mulle&#45;concurrent</title>
<path fill="none" stroke="black" d="M1283.72,-87.74C1171.74,-84.22 877.21,-72.15 621.9,-36"/>
<polygon fill="black" stroke="black" points="622.09,-32.49 611.69,-34.54 621.1,-39.42 622.09,-32.49"/>
</g>
<!-- mulle&#45;core&#45;&gt;mulle&#45;container -->
<g id="edge6" class="edge">
<title>mulle&#45;core&#45;&gt;mulle&#45;container</title>
<path fill="none" stroke="black" d="M1283.76,-86.76C1188.82,-81.72 965,-67.47 768.33,-36.1"/>
<polygon fill="black" stroke="black" points="768.82,-32.63 758.39,-34.49 767.71,-39.54 768.82,-32.63"/>
</g>
<!-- mulle&#45;data -->
<g id="node9" class="node">
<title>mulle&#45;data</title>
<g id="a_node9"><a xlink:href="https://github.com/mulle-c/mulle-data@*" xlink:title="mulle&#45;data">
<polygon fill="lightgrey" stroke="black" points="868,-36 776,-36 776,0 868,0 868,-36"/>
<text text-anchor="middle" x="822" y="-14.3" font-family="Times,serif" font-size="14.00">mulle&#45;data</text>
</a>
</g>
</g>
<!-- mulle&#45;core&#45;&gt;mulle&#45;data -->
<g id="edge7" class="edge">
<title>mulle&#45;core&#45;&gt;mulle&#45;data</title>
<path fill="none" stroke="black" d="M1283.9,-86.41C1203.26,-81.26 1031.4,-67.61 878.12,-36.01"/>
<polygon fill="black" stroke="black" points="878.56,-32.53 868.05,-33.91 877.12,-39.38 878.56,-32.53"/>
</g>
<!-- mulle&#45;dlfcn -->
<g id="node10" class="node">
<title>mulle&#45;dlfcn</title>
<g id="a_node10"><a xlink:href="https://github.com/mulle-core/mulle-dlfcn@*" xlink:title="mulle&#45;dlfcn">
<polygon fill="lightgrey" stroke="black" points="982,-36 886,-36 886,0 982,0 982,-36"/>
<text text-anchor="middle" x="934" y="-14.3" font-family="Times,serif" font-size="14.00">mulle&#45;dlfcn</text>
</a>
</g>
</g>
<!-- mulle&#45;core&#45;&gt;mulle&#45;dlfcn -->
<g id="edge8" class="edge">
<title>mulle&#45;core&#45;&gt;mulle&#45;dlfcn</title>
<path fill="none" stroke="black" d="M1283.84,-83.79C1220.18,-76.16 1101.76,-60.39 991.99,-36.06"/>
<polygon fill="black" stroke="black" points="992.61,-32.61 982.08,-33.84 991.07,-39.44 992.61,-32.61"/>
</g>
<!-- mulle&#45;fifo -->
<g id="node11" class="node">
<title>mulle&#45;fifo</title>
<g id="a_node11"><a xlink:href="https://github.com/mulle-concurrent/mulle-fifo@*" xlink:title="mulle&#45;fifo">
<polygon fill="lightgrey" stroke="black" points="1083.5,-36 1000.5,-36 1000.5,0 1083.5,0 1083.5,-36"/>
<text text-anchor="middle" x="1042" y="-14.3" font-family="Times,serif" font-size="14.00">mulle&#45;fifo</text>
</a>
</g>
</g>
<!-- mulle&#45;core&#45;&gt;mulle&#45;fifo -->
<g id="edge9" class="edge">
<title>mulle&#45;core&#45;&gt;mulle&#45;fifo</title>
<path fill="none" stroke="black" d="M1283.78,-80.11C1237.82,-70.96 1165.19,-55.61 1093.32,-35.94"/>
<polygon fill="black" stroke="black" points="1094.21,-32.56 1083.64,-33.26 1092.35,-39.3 1094.21,-32.56"/>
</g>
<!-- mulle&#45;fprintf -->
<g id="node12" class="node">
<title>mulle&#45;fprintf</title>
<g id="a_node12"><a xlink:href="https://github.com/mulle-core/mulle-fprintf@*" xlink:title="mulle&#45;fprintf">
<polygon fill="lightgrey" stroke="black" points="1208.5,-36 1101.5,-36 1101.5,0 1208.5,0 1208.5,-36"/>
<text text-anchor="middle" x="1155" y="-14.3" font-family="Times,serif" font-size="14.00">mulle&#45;fprintf</text>
</a>
</g>
</g>
<!-- mulle&#45;core&#45;&gt;mulle&#45;fprintf -->
<g id="edge10" class="edge">
<title>mulle&#45;core&#45;&gt;mulle&#45;fprintf</title>
<path fill="none" stroke="black" d="M1287.19,-71.88C1263.05,-62.22 1232.72,-50.09 1207.19,-39.88"/>
<polygon fill="black" stroke="black" points="1208.26,-36.53 1197.67,-36.07 1205.66,-43.03 1208.26,-36.53"/>
</g>
<!-- mulle&#45;http -->
<g id="node13" class="node">
<title>mulle&#45;http</title>
<g id="a_node13"><a xlink:href="https://github.com/mulle-c/mulle-http@*" xlink:title="mulle&#45;http">
<polygon fill="lightgrey" stroke="black" points="1317.5,-36 1226.5,-36 1226.5,0 1317.5,0 1317.5,-36"/>
<text text-anchor="middle" x="1272" y="-14.3" font-family="Times,serif" font-size="14.00">mulle&#45;http</text>
</a>
</g>
</g>
<!-- mulle&#45;core&#45;&gt;mulle&#45;http -->
<g id="edge11" class="edge">
<title>mulle&#45;core&#45;&gt;mulle&#45;http</title>
<path fill="none" stroke="black" d="M1315.66,-71.7C1308.71,-63.3 1300.23,-53.07 1292.6,-43.86"/>
<polygon fill="black" stroke="black" points="1295.25,-41.57 1286.17,-36.1 1289.86,-46.04 1295.25,-41.57"/>
</g>
<!-- mulle&#45;mmap -->
<g id="node14" class="node">
<title>mulle&#45;mmap</title>
<g id="a_node14"><a xlink:href="https://github.com/mulle-core/mulle-mmap@*" xlink:title="mulle&#45;mmap">
<polygon fill="lightgrey" stroke="black" points="1440.5,-36 1335.5,-36 1335.5,0 1440.5,0 1440.5,-36"/>
<text text-anchor="middle" x="1388" y="-14.3" font-family="Times,serif" font-size="14.00">mulle&#45;mmap</text>
</a>
</g>
</g>
<!-- mulle&#45;core&#45;&gt;mulle&#45;mmap -->
<g id="edge12" class="edge">
<title>mulle&#45;core&#45;&gt;mulle&#45;mmap</title>
<path fill="none" stroke="black" d="M1344.34,-71.7C1351.29,-63.3 1359.77,-53.07 1367.4,-43.86"/>
<polygon fill="black" stroke="black" points="1370.14,-46.04 1373.83,-36.1 1364.75,-41.57 1370.14,-46.04"/>
</g>
<!-- mulle&#45;multififo -->
<g id="node15" class="node">
<title>mulle&#45;multififo</title>
<g id="a_node15"><a xlink:href="https://github.com/mulle-concurrent/mulle-multififo@*" xlink:title="mulle&#45;multififo">
<polygon fill="lightgrey" stroke="black" points="1579.5,-36 1458.5,-36 1458.5,0 1579.5,0 1579.5,-36"/>
<text text-anchor="middle" x="1519" y="-14.3" font-family="Times,serif" font-size="14.00">mulle&#45;multififo</text>
</a>
</g>
</g>
<!-- mulle&#45;core&#45;&gt;mulle&#45;multififo -->
<g id="edge13" class="edge">
<title>mulle&#45;core&#45;&gt;mulle&#45;multififo</title>
<path fill="none" stroke="black" d="M1376.23,-71.88C1402.53,-62.14 1435.64,-49.87 1463.36,-39.61"/>
<polygon fill="black" stroke="black" points="1464.75,-42.82 1472.92,-36.07 1462.32,-36.26 1464.75,-42.82"/>
</g>
<!-- mulle&#45;slug -->
<g id="node16" class="node">
<title>mulle&#45;slug</title>
<g id="a_node16"><a xlink:href="https://github.com/mulle-c/mulle-slug@*" xlink:title="mulle&#45;slug">
<polygon fill="lightgrey" stroke="black" points="1688.5,-36 1597.5,-36 1597.5,0 1688.5,0 1688.5,-36"/>
<text text-anchor="middle" x="1643" y="-14.3" font-family="Times,serif" font-size="14.00">mulle&#45;slug</text>
</a>
</g>
</g>
<!-- mulle&#45;core&#45;&gt;mulle&#45;slug -->
<g id="edge14" class="edge">
<title>mulle&#45;core&#45;&gt;mulle&#45;slug</title>
<path fill="none" stroke="black" d="M1376.18,-81.04C1426.1,-72.1 1508.17,-56.45 1587.3,-36.32"/>
<polygon fill="black" stroke="black" points="1588.62,-39.59 1597.43,-33.71 1586.87,-32.81 1588.62,-39.59"/>
</g>
<!-- mulle&#45;sprintf -->
<g id="node17" class="node">
<title>mulle&#45;sprintf</title>
<g id="a_node17"><a xlink:href="https://github.com/mulle-core/mulle-sprintf@*" xlink:title="mulle&#45;sprintf">
<polygon fill="lightgrey" stroke="black" points="1815.5,-36 1706.5,-36 1706.5,0 1815.5,0 1815.5,-36"/>
<text text-anchor="middle" x="1761" y="-14.3" font-family="Times,serif" font-size="14.00">mulle&#45;sprintf</text>
</a>
</g>
</g>
<!-- mulle&#45;core&#45;&gt;mulle&#45;sprintf -->
<g id="edge15" class="edge">
<title>mulle&#45;core&#45;&gt;mulle&#45;sprintf</title>
<path fill="none" stroke="black" d="M1376.21,-84.16C1444.32,-76.62 1575.81,-60.56 1696.32,-36.22"/>
<polygon fill="black" stroke="black" points="1697.36,-39.58 1706.46,-34.15 1695.96,-32.72 1697.36,-39.58"/>
</g>
<!-- mulle&#45;stacktrace -->
<g id="node18" class="node">
<title>mulle&#45;stacktrace</title>
<g id="a_node18"><a xlink:href="https://github.com/mulle-core/mulle-stacktrace@*" xlink:title="mulle&#45;stacktrace">
<polygon fill="lightgrey" stroke="black" points="1968.5,-36 1833.5,-36 1833.5,0 1968.5,0 1968.5,-36"/>
<text text-anchor="middle" x="1901" y="-14.3" font-family="Times,serif" font-size="14.00">mulle&#45;stacktrace</text>
</a>
</g>
</g>
<!-- mulle&#45;core&#45;&gt;mulle&#45;stacktrace -->
<g id="edge16" class="edge">
<title>mulle&#45;core&#45;&gt;mulle&#45;stacktrace</title>
<path fill="none" stroke="black" d="M1376.3,-85.8C1462.47,-79.48 1653.4,-63.66 1823.01,-36.24"/>
<polygon fill="black" stroke="black" points="1823.82,-39.65 1833.12,-34.58 1822.69,-32.74 1823.82,-39.65"/>
</g>
<!-- mulle&#45;thread -->
<g id="node19" class="node">
<title>mulle&#45;thread</title>
<g id="a_node19"><a xlink:href="https://github.com/mulle-concurrent/mulle-thread@*" xlink:title="mulle&#45;thread">
<polygon fill="lightgrey" stroke="black" points="2095,-36 1987,-36 1987,0 2095,0 2095,-36"/>
<text text-anchor="middle" x="2041" y="-14.3" font-family="Times,serif" font-size="14.00">mulle&#45;thread</text>
</a>
</g>
</g>
<!-- mulle&#45;core&#45;&gt;mulle&#45;thread -->
<g id="edge17" class="edge">
<title>mulle&#45;core&#45;&gt;mulle&#45;thread</title>
<path fill="none" stroke="black" d="M1376.33,-88.1C1481.65,-85.43 1747.11,-75.21 1976.96,-35.99"/>
<polygon fill="black" stroke="black" points="1977.59,-39.44 1986.84,-34.28 1976.39,-32.54 1977.59,-39.44"/>
</g>
<!-- mulle&#45;time -->
<g id="node20" class="node">
<title>mulle&#45;time</title>
<g id="a_node20"><a xlink:href="https://github.com/mulle-core/mulle-time@*" xlink:title="mulle&#45;time">
<polygon fill="lightgrey" stroke="black" points="2206.5,-36 2113.5,-36 2113.5,0 2206.5,0 2206.5,-36"/>
<text text-anchor="middle" x="2160" y="-14.3" font-family="Times,serif" font-size="14.00">mulle&#45;time</text>
</a>
</g>
</g>
<!-- mulle&#45;core&#45;&gt;mulle&#45;time -->
<g id="edge18" class="edge">
<title>mulle&#45;core&#45;&gt;mulle&#45;time</title>
<path fill="none" stroke="black" d="M1376.25,-89.46C1495.61,-89.87 1823.62,-86.13 2103.51,-35.8"/>
<polygon fill="black" stroke="black" points="2104.23,-39.23 2113.44,-33.99 2102.98,-32.34 2104.23,-39.23"/>
</g>
<!-- mulle&#45;unicode -->
<g id="node21" class="node">
<title>mulle&#45;unicode</title>
<g id="a_node21"><a xlink:href="https://github.com/mulle-c/mulle-unicode@*" xlink:title="mulle&#45;unicode">
<polygon fill="lightgrey" stroke="black" points="2341,-36 2225,-36 2225,0 2341,0 2341,-36"/>
<text text-anchor="middle" x="2283" y="-14.3" font-family="Times,serif" font-size="14.00">mulle&#45;unicode</text>
</a>
</g>
</g>
<!-- mulle&#45;core&#45;&gt;mulle&#45;unicode -->
<g id="edge19" class="edge">
<title>mulle&#45;core&#45;&gt;mulle&#45;unicode</title>
<path fill="none" stroke="black" d="M1376.45,-89.3C1507.26,-89.48 1889.81,-85.52 2214.59,-36.04"/>
<polygon fill="black" stroke="black" points="2215.32,-39.47 2224.67,-34.49 2214.25,-32.55 2215.32,-39.47"/>
</g>
<!-- mulle&#45;url -->
<g id="node22" class="node">
<title>mulle&#45;url</title>
<g id="a_node22"><a xlink:href="https://github.com/mulle-c/mulle-url@*" xlink:title="mulle&#45;url">
<polygon fill="lightgrey" stroke="black" points="2440.5,-36 2359.5,-36 2359.5,0 2440.5,0 2440.5,-36"/>
<text text-anchor="middle" x="2400" y="-14.3" font-family="Times,serif" font-size="14.00">mulle&#45;url</text>
</a>
</g>
</g>
<!-- mulle&#45;core&#45;&gt;mulle&#45;url -->
<g id="edge20" class="edge">
<title>mulle&#45;core&#45;&gt;mulle&#45;url</title>
<path fill="none" stroke="black" d="M1376.11,-88.29C1546.33,-85.41 2139.87,-73.02 2349.34,-35.71"/>
<polygon fill="black" stroke="black" points="2350.13,-39.12 2359.32,-33.85 2348.85,-32.24 2350.13,-39.12"/>
</g>
<!-- mulle&#45;utf -->
<g id="node23" class="node">
<title>mulle&#45;utf</title>
<g id="a_node23"><a xlink:href="https://github.com/mulle-c/mulle-utf@*" xlink:title="mulle&#45;utf">
<polygon fill="lightgrey" stroke="black" points="2539.5,-36 2458.5,-36 2458.5,0 2539.5,0 2539.5,-36"/>
<text text-anchor="middle" x="2499" y="-14.3" font-family="Times,serif" font-size="14.00">mulle&#45;utf</text>
</a>
</g>
</g>
<!-- mulle&#45;core&#45;&gt;mulle&#45;utf -->
<g id="edge21" class="edge">
<title>mulle&#45;core&#45;&gt;mulle&#45;utf</title>
<path fill="none" stroke="black" d="M1376.17,-88.57C1557.18,-86.64 2219.36,-76.97 2448.41,-35.94"/>
<polygon fill="black" stroke="black" points="2449.14,-39.36 2458.33,-34.09 2447.86,-32.48 2449.14,-39.36"/>
</g>
<!-- mulle&#45;vararg -->
<g id="node24" class="node">
<title>mulle&#45;vararg</title>
<g id="a_node24"><a xlink:href="https://github.com/mulle-c/mulle-vararg@*" xlink:title="mulle&#45;vararg">
<polygon fill="lightgrey" stroke="black" points="2666,-36 2558,-36 2558,0 2666,0 2666,-36"/>
<text text-anchor="middle" x="2612" y="-14.3" font-family="Times,serif" font-size="14.00">mulle&#45;vararg</text>
</a>
</g>
</g>
<!-- mulle&#45;core&#45;&gt;mulle&#45;vararg -->
<g id="edge22" class="edge">
<title>mulle&#45;core&#45;&gt;mulle&#45;vararg</title>
<path fill="none" stroke="black" d="M1376.17,-88.35C1567.09,-85.46 2296.18,-72.34 2547.69,-35.95"/>
<polygon fill="black" stroke="black" points="2548.5,-39.36 2557.87,-34.42 2547.46,-32.44 2548.5,-39.36"/>
</g>
<!-- mulle&#45;objc&#45;runtime&#45;&gt;mulle&#45;core -->
<g id="edge26" class="edge">
<title>mulle&#45;objc&#45;runtime&#45;&gt;mulle&#45;core</title>
<path fill="none" stroke="black" d="M1330,-143.7C1330,-135.98 1330,-126.71 1330,-118.11"/>
<polygon fill="black" stroke="black" points="1333.5,-118.1 1330,-108.1 1326.5,-118.1 1333.5,-118.1"/>
</g>
</g>
</svg>
