<?xml version="1.0" encoding="UTF-8" standalone="no"?>
<!DOCTYPE svg PUBLIC "-//W3C//DTD SVG 1.1//EN"
 "http://www.w3.org/Graphics/SVG/1.1/DTD/svg11.dtd">
<!-- Generated by graphviz version 2.43.0 (0)
 -->
<!-- Title: sourcetree Pages: 1 -->
<svg width="1035pt" height="260pt"
 viewBox="0.00 0.00 1034.50 260.00" xmlns="http://www.w3.org/2000/svg" xmlns:xlink="http://www.w3.org/1999/xlink">
<g id="graph0" class="graph" transform="scale(1 1) rotate(0) translate(4 256)">
<title>sourcetree</title>
<polygon fill="white" stroke="transparent" points="-4,4 -4,-256 1030.5,-256 1030.5,4 -4,4"/>
<!-- MulleObjC -->
<g id="node1" class="node">
<title>MulleObjC</title>
<polygon fill="yellow" stroke="black" points="622.5,-252 530.5,-252 530.5,-216 622.5,-216 622.5,-252"/>
<text text-anchor="middle" x="576.5" y="-230.3" font-family="Times,serif" font-size="14.00">MulleObjC</text>
</g>
<!-- mulle&#45;container -->
<g id="node6" class="node">
<title>mulle&#45;container</title>
<polygon fill="lightgrey" stroke="black" points="251.5,-180 123.5,-180 123.5,-144 251.5,-144 251.5,-180"/>
<text text-anchor="middle" x="187.5" y="-158.3" font-family="Times,serif" font-size="14.00">mulle&#45;container</text>
</g>
<!-- MulleObjC&#45;&gt;mulle&#45;container -->
<g id="edge7" class="edge">
<title>MulleObjC&#45;&gt;mulle&#45;container</title>
<path fill="none" stroke="black" d="M530.35,-224.7C463.96,-212.75 340.79,-190.58 261.57,-176.33"/>
<polygon fill="black" stroke="black" points="262.12,-172.87 251.65,-174.54 260.88,-179.76 262.12,-172.87"/>
</g>
<!-- mulle&#45;fprintf -->
<g id="node9" class="node">
<title>mulle&#45;fprintf</title>
<polygon fill="lightgrey" stroke="black" points="431,-180 324,-180 324,-144 431,-144 431,-180"/>
<text text-anchor="middle" x="377.5" y="-158.3" font-family="Times,serif" font-size="14.00">mulle&#45;fprintf</text>
</g>
<!-- MulleObjC&#45;&gt;mulle&#45;fprintf -->
<g id="edge8" class="edge">
<title>MulleObjC&#45;&gt;mulle&#45;fprintf</title>
<path fill="none" stroke="black" d="M530.35,-216.76C502.06,-206.82 465.61,-193.99 435.4,-183.37"/>
<polygon fill="black" stroke="black" points="436.43,-180.02 425.83,-180 434.1,-186.62 436.43,-180.02"/>
</g>
<!-- mulle&#45;multififo -->
<g id="node11" class="node">
<title>mulle&#45;multififo</title>
<polygon fill="lightgrey" stroke="black" points="570,-180 449,-180 449,-144 570,-144 570,-180"/>
<text text-anchor="middle" x="509.5" y="-158.3" font-family="Times,serif" font-size="14.00">mulle&#45;multififo</text>
</g>
<!-- MulleObjC&#45;&gt;mulle&#45;multififo -->
<g id="edge9" class="edge">
<title>MulleObjC&#45;&gt;mulle&#45;multififo</title>
<path fill="none" stroke="black" d="M559.94,-215.7C551.82,-207.22 541.91,-196.86 533.03,-187.58"/>
<polygon fill="black" stroke="black" points="535.31,-184.91 525.87,-180.1 530.26,-189.75 535.31,-184.91"/>
</g>
<!-- mulle&#45;objc&#45;cc -->
<g id="node12" class="node">
<title>mulle&#45;objc&#45;cc</title>
<polygon fill="lightgrey" stroke="black" points="698.5,-180 588.5,-180 588.5,-144 698.5,-144 698.5,-180"/>
<text text-anchor="middle" x="643.5" y="-158.3" font-family="Times,serif" font-size="14.00">mulle&#45;objc&#45;cc</text>
</g>
<!-- MulleObjC&#45;&gt;mulle&#45;objc&#45;cc -->
<g id="edge10" class="edge">
<title>MulleObjC&#45;&gt;mulle&#45;objc&#45;cc</title>
<path fill="none" stroke="black" d="M593.06,-215.7C601.18,-207.22 611.09,-196.86 619.97,-187.58"/>
<polygon fill="black" stroke="black" points="622.74,-189.75 627.13,-180.1 617.69,-184.91 622.74,-189.75"/>
</g>
<!-- mulle&#45;objc&#45;debug -->
<g id="node13" class="node">
<title>mulle&#45;objc&#45;debug</title>
<polygon fill="lightgrey" stroke="black" points="856,-180 717,-180 717,-144 856,-144 856,-180"/>
<text text-anchor="middle" x="786.5" y="-158.3" font-family="Times,serif" font-size="14.00">mulle&#45;objc&#45;debug</text>
</g>
<!-- MulleObjC&#45;&gt;mulle&#45;objc&#45;debug -->
<g id="edge11" class="edge">
<title>MulleObjC&#45;&gt;mulle&#45;objc&#45;debug</title>
<path fill="none" stroke="black" d="M622.59,-217.64C652.91,-207.53 692.94,-194.19 725.85,-183.22"/>
<polygon fill="black" stroke="black" points="726.99,-186.53 735.37,-180.04 724.77,-179.89 726.99,-186.53"/>
</g>
<!-- mulle&#45;objc&#45;runtime -->
<g id="node14" class="node">
<title>mulle&#45;objc&#45;runtime</title>
<polygon fill="lightgrey" stroke="black" points="1026.5,-180 874.5,-180 874.5,-144 1026.5,-144 1026.5,-180"/>
<text text-anchor="middle" x="950.5" y="-158.3" font-family="Times,serif" font-size="14.00">mulle&#45;objc&#45;runtime</text>
</g>
<!-- MulleObjC&#45;&gt;mulle&#45;objc&#45;runtime -->
<g id="edge12" class="edge">
<title>MulleObjC&#45;&gt;mulle&#45;objc&#45;runtime</title>
<path fill="none" stroke="black" d="M622.92,-224.65C677.87,-214.73 772.41,-197.51 864.07,-180.07"/>
<polygon fill="black" stroke="black" points="864.91,-183.47 874.08,-178.16 863.6,-176.6 864.91,-183.47"/>
</g>
<!-- mulle&#45;allocator -->
<g id="node2" class="node">
<title>mulle&#45;allocator</title>
<polygon fill="lightgrey" stroke="black" points="123,-108 0,-108 0,-72 123,-72 123,-108"/>
<text text-anchor="middle" x="61.5" y="-86.3" font-family="Times,serif" font-size="14.00">mulle&#45;allocator</text>
</g>
<!-- mulle&#45;c11 -->
<g id="node3" class="node">
<title>mulle&#45;c11</title>
<polygon fill="lightgrey" stroke="black" points="104.5,-36 18.5,-36 18.5,0 104.5,0 104.5,-36"/>
<text text-anchor="middle" x="61.5" y="-14.3" font-family="Times,serif" font-size="14.00">mulle&#45;c11</text>
</g>
<!-- mulle&#45;allocator&#45;&gt;mulle&#45;c11 -->
<g id="edge1" class="edge">
<title>mulle&#45;allocator&#45;&gt;mulle&#45;c11</title>
<path fill="none" stroke="black" d="M61.5,-71.7C61.5,-63.98 61.5,-54.71 61.5,-46.11"/>
<polygon fill="black" stroke="black" points="65,-46.1 61.5,-36.1 58,-46.1 65,-46.1"/>
</g>
<!-- mulle&#45;concurrent -->
<g id="node4" class="node">
<title>mulle&#45;concurrent</title>
<polygon fill="lightgrey" stroke="black" points="1020,-108 881,-108 881,-72 1020,-72 1020,-108"/>
<text text-anchor="middle" x="950.5" y="-86.3" font-family="Times,serif" font-size="14.00">mulle&#45;concurrent</text>
</g>
<!-- mulle&#45;aba -->
<g id="node5" class="node">
<title>mulle&#45;aba</title>
<polygon fill="lightgrey" stroke="black" points="993.5,-36 907.5,-36 907.5,0 993.5,0 993.5,-36"/>
<text text-anchor="middle" x="950.5" y="-14.3" font-family="Times,serif" font-size="14.00">mulle&#45;aba</text>
</g>
<!-- mulle&#45;concurrent&#45;&gt;mulle&#45;aba -->
<g id="edge2" class="edge">
<title>mulle&#45;concurrent&#45;&gt;mulle&#45;aba</title>
<path fill="none" stroke="black" d="M950.5,-71.7C950.5,-63.98 950.5,-54.71 950.5,-46.11"/>
<polygon fill="black" stroke="black" points="954,-46.1 950.5,-36.1 947,-46.1 954,-46.1"/>
</g>
<!-- mulle&#45;container&#45;&gt;mulle&#45;allocator -->
<g id="edge3" class="edge">
<title>mulle&#45;container&#45;&gt;mulle&#45;allocator</title>
<path fill="none" stroke="black" d="M156.68,-143.88C140.05,-134.64 119.34,-123.13 101.48,-113.21"/>
<polygon fill="black" stroke="black" points="102.88,-109.99 92.44,-108.19 99.48,-116.11 102.88,-109.99"/>
</g>
<!-- mulle&#45;data -->
<g id="node7" class="node">
<title>mulle&#45;data</title>
<polygon fill="lightgrey" stroke="black" points="233.5,-108 141.5,-108 141.5,-72 233.5,-72 233.5,-108"/>
<text text-anchor="middle" x="187.5" y="-86.3" font-family="Times,serif" font-size="14.00">mulle&#45;data</text>
</g>
<!-- mulle&#45;container&#45;&gt;mulle&#45;data -->
<g id="edge4" class="edge">
<title>mulle&#45;container&#45;&gt;mulle&#45;data</title>
<path fill="none" stroke="black" d="M187.5,-143.7C187.5,-135.98 187.5,-126.71 187.5,-118.11"/>
<polygon fill="black" stroke="black" points="191,-118.1 187.5,-108.1 184,-118.1 191,-118.1"/>
</g>
<!-- src/farmhash -->
<g id="node8" class="node">
<title>src/farmhash</title>
<polygon fill="lightgrey" stroke="black" points="237.5,-36 127.5,-36 127.5,0 237.5,0 237.5,-36"/>
<text text-anchor="middle" x="182.5" y="-14.3" font-family="Times,serif" font-size="14.00">src/farmhash</text>
</g>
<!-- mulle&#45;data&#45;&gt;src/farmhash -->
<g id="edge5" class="edge">
<title>mulle&#45;data&#45;&gt;src/farmhash</title>
<path fill="none" stroke="black" d="M186.26,-71.7C185.71,-63.98 185.05,-54.71 184.44,-46.11"/>
<polygon fill="black" stroke="black" points="187.93,-45.83 183.72,-36.1 180.94,-46.33 187.93,-45.83"/>
</g>
<!-- mulle&#45;sprintf -->
<g id="node10" class="node">
<title>mulle&#45;sprintf</title>
<polygon fill="lightgrey" stroke="black" points="486,-108 377,-108 377,-72 486,-72 486,-108"/>
<text text-anchor="middle" x="431.5" y="-86.3" font-family="Times,serif" font-size="14.00">mulle&#45;sprintf</text>
</g>
<!-- mulle&#45;fprintf&#45;&gt;mulle&#45;sprintf -->
<g id="edge6" class="edge">
<title>mulle&#45;fprintf&#45;&gt;mulle&#45;sprintf</title>
<path fill="none" stroke="black" d="M390.85,-143.7C397.26,-135.39 405.06,-125.28 412.11,-116.14"/>
<polygon fill="black" stroke="black" points="414.97,-118.16 418.31,-108.1 409.43,-113.88 414.97,-118.16"/>
</g>
<!-- mulle&#45;buffer -->
<g id="node15" class="node">
<title>mulle&#45;buffer</title>
<polygon fill="lightgrey" stroke="black" points="359.5,-36 255.5,-36 255.5,0 359.5,0 359.5,-36"/>
<text text-anchor="middle" x="307.5" y="-14.3" font-family="Times,serif" font-size="14.00">mulle&#45;buffer</text>
</g>
<!-- mulle&#45;sprintf&#45;&gt;mulle&#45;buffer -->
<g id="edge14" class="edge">
<title>mulle&#45;sprintf&#45;&gt;mulle&#45;buffer</title>
<path fill="none" stroke="black" d="M401.17,-71.88C384.8,-62.64 364.42,-51.13 346.85,-41.21"/>
<polygon fill="black" stroke="black" points="348.38,-38.06 337.95,-36.19 344.94,-44.15 348.38,-38.06"/>
</g>
<!-- mulle&#45;thread -->
<g id="node16" class="node">
<title>mulle&#45;thread</title>
<polygon fill="lightgrey" stroke="black" points="485.5,-36 377.5,-36 377.5,0 485.5,0 485.5,-36"/>
<text text-anchor="middle" x="431.5" y="-14.3" font-family="Times,serif" font-size="14.00">mulle&#45;thread</text>
</g>
<!-- mulle&#45;sprintf&#45;&gt;mulle&#45;thread -->
<g id="edge15" class="edge">
<title>mulle&#45;sprintf&#45;&gt;mulle&#45;thread</title>
<path fill="none" stroke="black" d="M431.5,-71.7C431.5,-63.98 431.5,-54.71 431.5,-46.11"/>
<polygon fill="black" stroke="black" points="435,-46.1 431.5,-36.1 428,-46.1 435,-46.1"/>
</g>
<!-- mulle&#45;utf -->
<g id="node17" class="node">
<title>mulle&#45;utf</title>
<polygon fill="lightgrey" stroke="black" points="585,-36 504,-36 504,0 585,0 585,-36"/>
<text text-anchor="middle" x="544.5" y="-14.3" font-family="Times,serif" font-size="14.00">mulle&#45;utf</text>
</g>
<!-- mulle&#45;sprintf&#45;&gt;mulle&#45;utf -->
<g id="edge16" class="edge">
<title>mulle&#45;sprintf&#45;&gt;mulle&#45;utf</title>
<path fill="none" stroke="black" d="M459.14,-71.88C473.92,-62.72 492.29,-51.34 508.2,-41.48"/>
<polygon fill="black" stroke="black" points="510.09,-44.43 516.75,-36.19 506.41,-38.48 510.09,-44.43"/>
</g>
<!-- mulle&#45;vararg -->
<g id="node18" class="node">
<title>mulle&#45;vararg</title>
<polygon fill="lightgrey" stroke="black" points="711.5,-36 603.5,-36 603.5,0 711.5,0 711.5,-36"/>
<text text-anchor="middle" x="657.5" y="-14.3" font-family="Times,serif" font-size="14.00">mulle&#45;vararg</text>
</g>
<!-- mulle&#45;sprintf&#45;&gt;mulle&#45;vararg -->
<g id="edge17" class="edge">
<title>mulle&#45;sprintf&#45;&gt;mulle&#45;vararg</title>
<path fill="none" stroke="black" d="M486.21,-72.05C518.55,-62.04 559.66,-49.3 593.5,-38.82"/>
<polygon fill="black" stroke="black" points="594.78,-42.09 603.3,-35.79 592.71,-35.4 594.78,-42.09"/>
</g>
<!-- mulle&#45;objc&#45;runtime&#45;&gt;mulle&#45;concurrent -->
<g id="edge13" class="edge">
<title>mulle&#45;objc&#45;runtime&#45;&gt;mulle&#45;concurrent</title>
<path fill="none" stroke="black" d="M950.5,-143.7C950.5,-135.98 950.5,-126.71 950.5,-118.11"/>
<polygon fill="black" stroke="black" points="954,-118.1 950.5,-108.1 947,-118.1 954,-118.1"/>
</g>
</g>
</svg>
