<?xml version="1.0" encoding="UTF-8" standalone="no"?>
<!DOCTYPE svg PUBLIC "-//W3C//DTD SVG 1.1//EN"
 "http://www.w3.org/Graphics/SVG/1.1/DTD/svg11.dtd">
<!-- Generated by graphviz version 2.43.0 (0)
 -->
<!-- Title: sourcetree Pages: 1 -->
<svg width="701pt" height="260pt"
 viewBox="0.00 0.00 700.50 260.00" xmlns="http://www.w3.org/2000/svg" xmlns:xlink="http://www.w3.org/1999/xlink">
<g id="graph0" class="graph" transform="scale(1 1) rotate(0) translate(4 256)">
<title>sourcetree</title>
<polygon fill="white" stroke="transparent" points="-4,4 -4,-256 696.5,-256 696.5,4 -4,4"/>
<!-- MulleObjC -->
<g id="node1" class="node">
<title>MulleObjC</title>
<polygon fill="yellow" stroke="black" points="391.5,-252 299.5,-252 299.5,-216 391.5,-216 391.5,-252"/>
<text text-anchor="middle" x="345.5" y="-230.3" font-family="Times,serif" font-size="14.00">MulleObjC</text>
</g>
<!-- mulle&#45;objc&#45;debug -->
<g id="node6" class="node">
<title>mulle&#45;objc&#45;debug</title>
<polygon fill="lightgrey" stroke="black" points="139,-180 0,-180 0,-144 139,-144 139,-180"/>
<text text-anchor="middle" x="69.5" y="-158.3" font-family="Times,serif" font-size="14.00">mulle&#45;objc&#45;debug</text>
</g>
<!-- MulleObjC&#45;&gt;mulle&#45;objc&#45;debug -->
<g id="edge6" class="edge">
<title>MulleObjC&#45;&gt;mulle&#45;objc&#45;debug</title>
<path fill="none" stroke="black" d="M299.3,-221.28C257.67,-210.72 195.63,-194.99 146.5,-182.53"/>
<polygon fill="black" stroke="black" points="147.1,-179.07 136.55,-180 145.38,-185.86 147.1,-179.07"/>
</g>
<!-- mulle&#45;container -->
<g id="node7" class="node">
<title>mulle&#45;container</title>
<polygon fill="lightgrey" stroke="black" points="285.5,-180 157.5,-180 157.5,-144 285.5,-144 285.5,-180"/>
<text text-anchor="middle" x="221.5" y="-158.3" font-family="Times,serif" font-size="14.00">mulle&#45;container</text>
</g>
<!-- MulleObjC&#45;&gt;mulle&#45;container -->
<g id="edge4" class="edge">
<title>MulleObjC&#45;&gt;mulle&#45;container</title>
<path fill="none" stroke="black" d="M315.17,-215.88C298.8,-206.64 278.42,-195.13 260.85,-185.21"/>
<polygon fill="black" stroke="black" points="262.38,-182.06 251.95,-180.19 258.94,-188.15 262.38,-182.06"/>
</g>
<!-- mulle&#45;fifo -->
<g id="node8" class="node">
<title>mulle&#45;fifo</title>
<polygon fill="lightgrey" stroke="black" points="387,-180 304,-180 304,-144 387,-144 387,-180"/>
<text text-anchor="middle" x="345.5" y="-158.3" font-family="Times,serif" font-size="14.00">mulle&#45;fifo</text>
</g>
<!-- MulleObjC&#45;&gt;mulle&#45;fifo -->
<g id="edge5" class="edge">
<title>MulleObjC&#45;&gt;mulle&#45;fifo</title>
<path fill="none" stroke="black" d="M345.5,-215.7C345.5,-207.98 345.5,-198.71 345.5,-190.11"/>
<polygon fill="black" stroke="black" points="349,-190.1 345.5,-180.1 342,-190.1 349,-190.1"/>
</g>
<!-- mulle&#45;objc&#45;list -->
<g id="node9" class="node">
<title>mulle&#45;objc&#45;list</title>
<polygon fill="lightgrey" stroke="black" points="522,-180 405,-180 405,-144 522,-144 522,-180"/>
<text text-anchor="middle" x="463.5" y="-158.3" font-family="Times,serif" font-size="14.00">mulle&#45;objc&#45;list</text>
</g>
<!-- MulleObjC&#45;&gt;mulle&#45;objc&#45;list -->
<g id="edge7" class="edge">
<title>MulleObjC&#45;&gt;mulle&#45;objc&#45;list</title>
<path fill="none" stroke="black" d="M374.37,-215.88C389.79,-206.72 408.98,-195.34 425.6,-185.48"/>
<polygon fill="black" stroke="black" points="427.71,-188.3 434.52,-180.19 424.14,-182.28 427.71,-188.3"/>
</g>
<!-- mulle&#45;objc&#45;runtime -->
<g id="node10" class="node">
<title>mulle&#45;objc&#45;runtime</title>
<polygon fill="lightgrey" stroke="black" points="692.5,-180 540.5,-180 540.5,-144 692.5,-144 692.5,-180"/>
<text text-anchor="middle" x="616.5" y="-158.3" font-family="Times,serif" font-size="14.00">mulle&#45;objc&#45;runtime</text>
</g>
<!-- MulleObjC&#45;&gt;mulle&#45;objc&#45;runtime -->
<g id="edge8" class="edge">
<title>MulleObjC&#45;&gt;mulle&#45;objc&#45;runtime</title>
<path fill="none" stroke="black" d="M391.78,-221.05C432.65,-210.49 493.02,-194.89 540.9,-182.53"/>
<polygon fill="black" stroke="black" points="541.8,-185.91 550.61,-180.02 540.05,-179.13 541.8,-185.91"/>
</g>
<!-- mulle&#45;concurrent -->
<g id="node2" class="node">
<title>mulle&#45;concurrent</title>
<polygon fill="lightgrey" stroke="black" points="686,-108 547,-108 547,-72 686,-72 686,-108"/>
<text text-anchor="middle" x="616.5" y="-86.3" font-family="Times,serif" font-size="14.00">mulle&#45;concurrent</text>
</g>
<!-- mulle&#45;aba -->
<g id="node3" class="node">
<title>mulle&#45;aba</title>
<polygon fill="lightgrey" stroke="black" points="659.5,-36 573.5,-36 573.5,0 659.5,0 659.5,-36"/>
<text text-anchor="middle" x="616.5" y="-14.3" font-family="Times,serif" font-size="14.00">mulle&#45;aba</text>
</g>
<!-- mulle&#45;concurrent&#45;&gt;mulle&#45;aba -->
<g id="edge1" class="edge">
<title>mulle&#45;concurrent&#45;&gt;mulle&#45;aba</title>
<path fill="none" stroke="black" d="M616.5,-71.7C616.5,-63.98 616.5,-54.71 616.5,-46.11"/>
<polygon fill="black" stroke="black" points="620,-46.1 616.5,-36.1 613,-46.1 620,-46.1"/>
</g>
<!-- mulle&#45;fprintf -->
<g id="node4" class="node">
<title>mulle&#45;fprintf</title>
<polygon fill="lightgrey" stroke="black" points="123,-108 16,-108 16,-72 123,-72 123,-108"/>
<text text-anchor="middle" x="69.5" y="-86.3" font-family="Times,serif" font-size="14.00">mulle&#45;fprintf</text>
</g>
<!-- mulle&#45;sprintf -->
<g id="node5" class="node">
<title>mulle&#45;sprintf</title>
<polygon fill="lightgrey" stroke="black" points="124,-36 15,-36 15,0 124,0 124,-36"/>
<text text-anchor="middle" x="69.5" y="-14.3" font-family="Times,serif" font-size="14.00">mulle&#45;sprintf</text>
</g>
<!-- mulle&#45;fprintf&#45;&gt;mulle&#45;sprintf -->
<g id="edge2" class="edge">
<title>mulle&#45;fprintf&#45;&gt;mulle&#45;sprintf</title>
<path fill="none" stroke="black" d="M69.5,-71.7C69.5,-63.98 69.5,-54.71 69.5,-46.11"/>
<polygon fill="black" stroke="black" points="73,-46.1 69.5,-36.1 66,-46.1 73,-46.1"/>
</g>
<!-- mulle&#45;objc&#45;debug&#45;&gt;mulle&#45;fprintf -->
<g id="edge3" class="edge">
<title>mulle&#45;objc&#45;debug&#45;&gt;mulle&#45;fprintf</title>
<path fill="none" stroke="black" d="M69.5,-143.7C69.5,-135.98 69.5,-126.71 69.5,-118.11"/>
<polygon fill="black" stroke="black" points="73,-118.1 69.5,-108.1 66,-118.1 73,-118.1"/>
</g>
<!-- mulle&#45;objc&#45;runtime&#45;&gt;mulle&#45;concurrent -->
<g id="edge9" class="edge">
<title>mulle&#45;objc&#45;runtime&#45;&gt;mulle&#45;concurrent</title>
<path fill="none" stroke="black" d="M616.5,-143.7C616.5,-135.98 616.5,-126.71 616.5,-118.11"/>
<polygon fill="black" stroke="black" points="620,-118.1 616.5,-108.1 613,-118.1 620,-118.1"/>
</g>
</g>
</svg>
