<?xml version="1.0" encoding="UTF-8" standalone="no"?>
<!DOCTYPE svg PUBLIC "-//W3C//DTD SVG 1.1//EN"
 "http://www.w3.org/Graphics/SVG/1.1/DTD/svg11.dtd">
<!-- Generated by graphviz version 2.43.0 (0)
 -->
<!-- Title: sourcetree Pages: 1 -->
<svg width="446pt" height="188pt"
 viewBox="0.00 0.00 446.00 188.00" xmlns="http://www.w3.org/2000/svg" xmlns:xlink="http://www.w3.org/1999/xlink">
<g id="graph0" class="graph" transform="scale(1 1) rotate(0) translate(4 184)">
<title>sourcetree</title>
<polygon fill="white" stroke="transparent" points="-4,4 -4,-184 442,-184 442,4 -4,4"/>
<!-- MulleObjC -->
<g id="node1" class="node">
<title>MulleObjC</title>
<polygon fill="yellow" stroke="black" points="244,-180 152,-180 152,-144 244,-144 244,-180"/>
<text text-anchor="middle" x="198" y="-158.3" font-family="Times,serif" font-size="14.00">MulleObjC</text>
</g>
<!-- mulle&#45;objc&#45;cc -->
<g id="node3" class="node">
<title>mulle&#45;objc&#45;cc</title>
<g id="a_node3"><a xlink:href="https://github.com/mulle-cc/mulle-objc-cc" xlink:title="mulle&#45;objc&#45;cc">
<polygon fill="lightgrey" stroke="black" points="110,-108 0,-108 0,-72 110,-72 110,-108"/>
<text text-anchor="middle" x="55" y="-86.3" font-family="Times,serif" font-size="14.00">mulle&#45;objc&#45;cc</text>
</a>
</g>
</g>
<!-- MulleObjC&#45;&gt;mulle&#45;objc&#45;cc -->
<g id="edge1" class="edge">
<title>MulleObjC&#45;&gt;mulle&#45;objc&#45;cc</title>
<path fill="none" stroke="black" d="M163.02,-143.88C143.8,-134.47 119.77,-122.71 99.26,-112.67"/>
<polygon fill="black" stroke="black" points="100.64,-109.44 90.12,-108.19 97.56,-115.73 100.64,-109.44"/>
</g>
<!-- mulle&#45;objc&#45;debug -->
<g id="node4" class="node">
<title>mulle&#45;objc&#45;debug</title>
<g id="a_node4"><a xlink:href="https://github.com/mulle-objc/mulle-objc-debug" xlink:title="mulle&#45;objc&#45;debug">
<polygon fill="lightgrey" stroke="black" points="267.5,-108 128.5,-108 128.5,-72 267.5,-72 267.5,-108"/>
<text text-anchor="middle" x="198" y="-86.3" font-family="Times,serif" font-size="14.00">mulle&#45;objc&#45;debug</text>
</a>
</g>
</g>
<!-- MulleObjC&#45;&gt;mulle&#45;objc&#45;debug -->
<g id="edge2" class="edge">
<title>MulleObjC&#45;&gt;mulle&#45;objc&#45;debug</title>
<path fill="none" stroke="black" d="M198,-143.7C198,-135.98 198,-126.71 198,-118.11"/>
<polygon fill="black" stroke="black" points="201.5,-118.1 198,-108.1 194.5,-118.1 201.5,-118.1"/>
</g>
<!-- mulle&#45;objc&#45;runtime -->
<g id="node5" class="node">
<title>mulle&#45;objc&#45;runtime</title>
<g id="a_node5"><a xlink:href="https://github.com/mulle-objc/mulle-objc-runtime" xlink:title="mulle&#45;objc&#45;runtime">
<polygon fill="lightgrey" stroke="black" points="438,-108 286,-108 286,-72 438,-72 438,-108"/>
<text text-anchor="middle" x="362" y="-86.3" font-family="Times,serif" font-size="14.00">mulle&#45;objc&#45;runtime</text>
</a>
</g>
</g>
<!-- MulleObjC&#45;&gt;mulle&#45;objc&#45;runtime -->
<g id="edge3" class="edge">
<title>MulleObjC&#45;&gt;mulle&#45;objc&#45;runtime</title>
<path fill="none" stroke="black" d="M238.12,-143.88C260.64,-134.26 288.92,-122.19 312.77,-112.01"/>
<polygon fill="black" stroke="black" points="314.19,-115.21 322.01,-108.07 311.44,-108.77 314.19,-115.21"/>
</g>
<!-- mulle&#45;core -->
<g id="node2" class="node">
<title>mulle&#45;core</title>
<g id="a_node2"><a xlink:href="https://github.com/mulle-core/mulle-core" xlink:title="mulle&#45;core">
<polygon fill="lightgrey" stroke="black" points="408,-36 316,-36 316,0 408,0 408,-36"/>
<text text-anchor="middle" x="362" y="-14.3" font-family="Times,serif" font-size="14.00">mulle&#45;core</text>
</a>
</g>
</g>
<!-- mulle&#45;objc&#45;runtime&#45;&gt;mulle&#45;core -->
<g id="edge4" class="edge">
<title>mulle&#45;objc&#45;runtime&#45;&gt;mulle&#45;core</title>
<path fill="none" stroke="black" d="M362,-71.7C362,-63.98 362,-54.71 362,-46.11"/>
<polygon fill="black" stroke="black" points="365.5,-46.1 362,-36.1 358.5,-46.1 365.5,-46.1"/>
</g>
</g>
</svg>
