<?xml version="1.0" encoding="UTF-8" standalone="no"?>
<!DOCTYPE svg PUBLIC "-//W3C//DTD SVG 1.1//EN"
 "http://www.w3.org/Graphics/SVG/1.1/DTD/svg11.dtd">
<!-- Generated by graphviz version 2.43.0 (0)
 -->
<!-- Title: sourcetree Pages: 1 -->
<svg width="604pt" height="260pt"
 viewBox="0.00 0.00 603.50 260.00" xmlns="http://www.w3.org/2000/svg" xmlns:xlink="http://www.w3.org/1999/xlink">
<g id="graph0" class="graph" transform="scale(1 1) rotate(0) translate(4 256)">
<title>sourcetree</title>
<polygon fill="white" stroke="transparent" points="-4,4 -4,-256 599.5,-256 599.5,4 -4,4"/>
<!-- MulleObjC -->
<g id="node1" class="node">
<title>MulleObjC</title>
<polygon fill="yellow" stroke="black" points="338.5,-252 246.5,-252 246.5,-216 338.5,-216 338.5,-252"/>
<text text-anchor="middle" x="292.5" y="-230.3" font-family="Times,serif" font-size="14.00">MulleObjC</text>
</g>
<!-- mulle&#45;objc&#45;debug -->
<g id="node6" class="node">
<title>mulle&#45;objc&#45;debug</title>
<polygon fill="lightgrey" stroke="black" points="139,-180 0,-180 0,-144 139,-144 139,-180"/>
<text text-anchor="middle" x="69.5" y="-158.3" font-family="Times,serif" font-size="14.00">mulle&#45;objc&#45;debug</text>
</g>
<!-- MulleObjC&#45;&gt;mulle&#45;objc&#45;debug -->
<g id="edge6" class="edge">
<title>MulleObjC&#45;&gt;mulle&#45;objc&#45;debug</title>
<path fill="none" stroke="black" d="M246.29,-218.5C213.76,-208.28 169.77,-194.48 133.82,-183.19"/>
<polygon fill="black" stroke="black" points="134.49,-179.73 123.9,-180.08 132.4,-186.41 134.49,-179.73"/>
</g>
<!-- mulle&#45;container -->
<g id="node7" class="node">
<title>mulle&#45;container</title>
<polygon fill="lightgrey" stroke="black" points="285.5,-180 157.5,-180 157.5,-144 285.5,-144 285.5,-180"/>
<text text-anchor="middle" x="221.5" y="-158.3" font-family="Times,serif" font-size="14.00">mulle&#45;container</text>
</g>
<!-- MulleObjC&#45;&gt;mulle&#45;container -->
<g id="edge4" class="edge">
<title>MulleObjC&#45;&gt;mulle&#45;container</title>
<path fill="none" stroke="black" d="M274.95,-215.7C266.27,-207.14 255.64,-196.66 246.15,-187.3"/>
<polygon fill="black" stroke="black" points="248.43,-184.63 238.85,-180.1 243.51,-189.62 248.43,-184.63"/>
</g>
<!-- mulle&#45;multififo -->
<g id="node8" class="node">
<title>mulle&#45;multififo</title>
<polygon fill="lightgrey" stroke="black" points="425,-180 304,-180 304,-144 425,-144 425,-180"/>
<text text-anchor="middle" x="364.5" y="-158.3" font-family="Times,serif" font-size="14.00">mulle&#45;multififo</text>
</g>
<!-- MulleObjC&#45;&gt;mulle&#45;multififo -->
<g id="edge5" class="edge">
<title>MulleObjC&#45;&gt;mulle&#45;multififo</title>
<path fill="none" stroke="black" d="M310.3,-215.7C319.1,-207.14 329.88,-196.66 339.5,-187.3"/>
<polygon fill="black" stroke="black" points="342.18,-189.58 346.91,-180.1 337.3,-184.57 342.18,-189.58"/>
</g>
<!-- mulle&#45;objc&#45;runtime -->
<g id="node9" class="node">
<title>mulle&#45;objc&#45;runtime</title>
<polygon fill="lightgrey" stroke="black" points="595.5,-180 443.5,-180 443.5,-144 595.5,-144 595.5,-180"/>
<text text-anchor="middle" x="519.5" y="-158.3" font-family="Times,serif" font-size="14.00">mulle&#45;objc&#45;runtime</text>
</g>
<!-- MulleObjC&#45;&gt;mulle&#45;objc&#45;runtime -->
<g id="edge7" class="edge">
<title>MulleObjC&#45;&gt;mulle&#45;objc&#45;runtime</title>
<path fill="none" stroke="black" d="M338.71,-218.75C372.03,-208.48 417.46,-194.47 454.44,-183.06"/>
<polygon fill="black" stroke="black" points="455.61,-186.36 464.14,-180.07 453.55,-179.67 455.61,-186.36"/>
</g>
<!-- mulle&#45;concurrent -->
<g id="node2" class="node">
<title>mulle&#45;concurrent</title>
<polygon fill="lightgrey" stroke="black" points="589,-108 450,-108 450,-72 589,-72 589,-108"/>
<text text-anchor="middle" x="519.5" y="-86.3" font-family="Times,serif" font-size="14.00">mulle&#45;concurrent</text>
</g>
<!-- mulle&#45;aba -->
<g id="node3" class="node">
<title>mulle&#45;aba</title>
<polygon fill="lightgrey" stroke="black" points="562.5,-36 476.5,-36 476.5,0 562.5,0 562.5,-36"/>
<text text-anchor="middle" x="519.5" y="-14.3" font-family="Times,serif" font-size="14.00">mulle&#45;aba</text>
</g>
<!-- mulle&#45;concurrent&#45;&gt;mulle&#45;aba -->
<g id="edge1" class="edge">
<title>mulle&#45;concurrent&#45;&gt;mulle&#45;aba</title>
<path fill="none" stroke="black" d="M519.5,-71.7C519.5,-63.98 519.5,-54.71 519.5,-46.11"/>
<polygon fill="black" stroke="black" points="523,-46.1 519.5,-36.1 516,-46.1 523,-46.1"/>
</g>
<!-- mulle&#45;fprintf -->
<g id="node4" class="node">
<title>mulle&#45;fprintf</title>
<polygon fill="lightgrey" stroke="black" points="123,-108 16,-108 16,-72 123,-72 123,-108"/>
<text text-anchor="middle" x="69.5" y="-86.3" font-family="Times,serif" font-size="14.00">mulle&#45;fprintf</text>
</g>
<!-- mulle&#45;sprintf -->
<g id="node5" class="node">
<title>mulle&#45;sprintf</title>
<polygon fill="lightgrey" stroke="black" points="124,-36 15,-36 15,0 124,0 124,-36"/>
<text text-anchor="middle" x="69.5" y="-14.3" font-family="Times,serif" font-size="14.00">mulle&#45;sprintf</text>
</g>
<!-- mulle&#45;fprintf&#45;&gt;mulle&#45;sprintf -->
<g id="edge2" class="edge">
<title>mulle&#45;fprintf&#45;&gt;mulle&#45;sprintf</title>
<path fill="none" stroke="black" d="M69.5,-71.7C69.5,-63.98 69.5,-54.71 69.5,-46.11"/>
<polygon fill="black" stroke="black" points="73,-46.1 69.5,-36.1 66,-46.1 73,-46.1"/>
</g>
<!-- mulle&#45;objc&#45;debug&#45;&gt;mulle&#45;fprintf -->
<g id="edge3" class="edge">
<title>mulle&#45;objc&#45;debug&#45;&gt;mulle&#45;fprintf</title>
<path fill="none" stroke="black" d="M69.5,-143.7C69.5,-135.98 69.5,-126.71 69.5,-118.11"/>
<polygon fill="black" stroke="black" points="73,-118.1 69.5,-108.1 66,-118.1 73,-118.1"/>
</g>
<!-- mulle&#45;objc&#45;runtime&#45;&gt;mulle&#45;concurrent -->
<g id="edge8" class="edge">
<title>mulle&#45;objc&#45;runtime&#45;&gt;mulle&#45;concurrent</title>
<path fill="none" stroke="black" d="M519.5,-143.7C519.5,-135.98 519.5,-126.71 519.5,-118.11"/>
<polygon fill="black" stroke="black" points="523,-118.1 519.5,-108.1 516,-118.1 523,-118.1"/>
</g>
</g>
</svg>
